{"title":"As the Moon, So Beautiful S01E07 (EngDub) 720p x264 Download","magnet":"magnet:?xt=urn:btih:933aacf018f86336946fb812ab175e29d305ec78&dn=As+the+Moon%2C+So+Beautiful+S01E07+%28EngDub%29+720p+x264+Download&tr=udp%3A%2F%2Ftracker.leechers-paradise.org%3A6969&tr=udp%3A%2F%2Fzer0day.ch%3A1337&tr=udp%3A%2F%2Fopen.demonii.com%3A1337&tr=udp%3A%2F%2Ftracker.coppersurfer.tk%3A6969&tr=udp%3A%2F%2Fexodus.desync.com%3A6969","uploader":"digimaza","categoryP":"video","categoryS":"hd___tv_shows","size":"252649038","seeders":"1","leechers":"2","description":"Tsuki ga Kirei S01E07 (EngDub) 720p x264 Download\r\n..::File Specs::.. \r\nGeneral \r\n\r\nFormat : Matroska \r\nFormat version : Version 4 / Version 2 \r\nFile size : 241 MiB \r\nDuration : 24 min 19 s \r\nOverall bit rate : 1 384 kb/s \r\n\r\nVideo \r\nID : 1 \r\nFormat : AVC \r\nFormat/Info : Advanced Video Codec \r\nFormat profile : <a class=\"__cf_email__\" href=\"/cdn-cgi/l/email-protection\" data-cfemail=\"9ed6f7f9f6ded2adb0af\">[email&#xA0;protected]</a><script data-cfhash=\"f9e31\" type=\"text/javascript\">/* <![CDATA[ */!function(t,e,r,n,c,a,p){try{t=document.currentScript||function(){for(t=document.getElementsByTagName('script'),e=t.length;e--;)if(t[e].getAttribute('data-cfhash'))return t[e]}();if(t&&(c=t.previousSibling)){p=t.parentNode;if(a=c.getAttribute('data-cfemail')){for(e='',r='0x'+a.substr(0,2)|0,n=2;a.length-n;n+=2)e+='%'+('0'+('0x'+a.substr(n,2)^r).toString(16)).slice(-2);p.replaceChild(document.createTextNode(decodeURIComponent(e)),c)}p.removeChild(t)}}catch(u){}}()/* ]]> */</script> \r\nFormat settings, CABAC : Yes \r\nFormat settings, ReFrames : 1 frame \r\nCodec ID : V_MPEG4/ISO/AVC \r\nDuration : 24 min 19 s \r\nBit rate : 1 190 kb/s \r\nWidth : 1 280 pixels \r\nHeight : 720 pixels \r\nDisplay aspect ratio : 16:9 \r\nFrame rate mode : Constant \r\nFrame rate : 23.976 (24000/1001) FPS \r\nColor space : YUV \r\nChroma subsampling : 4:2:0 \r\nBit depth : 8 bits \r\nScan type : Progressive \r\nBits/(Pixel*Frame) : 0.054 \r\nStream size : 207 MiB (86%) \r\nDefault : Yes \r\nForced : No \r\nColor range : Limited \r\nColor primaries : BT.709 \r\nTransfer characteristics : BT.709 \r\nMatrix coefficients : BT.709 \r\n\r\nAudio \r\nID : 2 \r\nFormat : AAC \r\nFormat/Info : Advanced Audio Codec \r\nFormat profile : LC \r\nCodec ID : A_AAC \r\nDuration : 24 min 19 s \r\nBit rate : 192 kb/s \r\nChannel(s) : 2 channels \r\nChannel positions : Front: L R \r\nSampling rate : 44.1 kHz \r\nFrame rate : 43.066 FPS (1024 spf) \r\nCompression mode : Lossy \r\nStream size : 33.4 MiB (14%) \r\n\r\n..::ScreenShots::.. \r\n <a href=\"\nhttps://s21.postimg.org/4hzv5a28n/vlcsnap-2017-06-23-01h53m47s043.png\" rel=\"nofollow\" target=\"_NEW\">\nhttps://s21.postimg.org/4hzv5a28n/vlcsnap-2017-06-23-01h53m47s043.png</a>  <a href=\"\nhttps://s21.postimg.org/jrzqcgxqv/vlcsnap-2017-06-23-01h53m55s817.png\" rel=\"nofollow\" target=\"_NEW\">\nhttps://s21.postimg.org/jrzqcgxqv/vlcsnap-2017-06-23-01h53m55s817.png</a>  <a href=\"\nhttps://s21.postimg.org/a8q1j0a8n/vlcsnap-2017-06-23-01h54m00s156.png\" rel=\"nofollow\" target=\"_NEW\">\nhttps://s21.postimg.org/a8q1j0a8n/vlcsnap-2017-06-23-01h54m00s156.png</a> \r\n\r\n================================================================ \r\nSeed Seed Seed Seed Seed Seed Seed Seed Seed Seed Seed Seed Seed \r\nTo direct download or Watch Online this file, Visit. \r\r\nSeed Seed Seed Seed Seed Seed Seed Seed Seed Seed Seed Seed Seed \r\n================================================================","last_updated":"2017-06-23T12:02:20.613Z","parsed":{"xt":"urn:btih:933aacf018f86336946fb812ab175e29d305ec78","dn":"As the Moon, So Beautiful S01E07 (EngDub) 720p x264 Download","tr":["udp://exodus.desync.com:6969","udp://open.demonii.com:1337","udp://tracker.coppersurfer.tk:6969","udp://tracker.leechers-paradise.org:6969","udp://zer0day.ch:1337"],"infoHash":"933aacf018f86336946fb812ab175e29d305ec78","infoHashBuffer":{"type":"Buffer","data":[147,58,172,240,24,248,99,54,148,111,184,18,171,23,94,41,211,5,236,120]},"name":"As the Moon, So Beautiful S01E07 (EngDub) 720p x264 Download","announce":["udp://exodus.desync.com:6969","udp://open.demonii.com:1337","udp://tracker.coppersurfer.tk:6969","udp://tracker.leechers-paradise.org:6969","udp://zer0day.ch:1337"],"urlList":[]}}